<svg width="1200" height="766" viewBox="0 0 1200 766" fill="none" xmlns="http://www.w3.org/2000/svg">
<g clip-path="url(#clip0_4156_6094)">
<path d="M37.2 765.3L1162.8 765.3C1183.34 765.3 1200 748.645 1200 728.1V37.2C1200 16.655 1183.34 0 1162.8 0L37.2 0C16.6549 0 0 16.655 0 37.2V728.1C0 748.645 16.6549 765.3 37.2 765.3Z" fill="url(#paint0_linear_4156_6094)"/>
<path d="M110.8 141.5C104.2 141.5 97.6999 139.8 91.9999 136.6L90.8999 136H107.2C125.3 136 140 121.5 140 103.6C140 85.7 125.3 71.2 107.2 71.2H90.8999L91.9999 70.6C97.6999 67.4 104.2 65.7 110.8 65.7C132 65.7 149.2 82.7 149.2 103.6C149.2 124.5 132 141.5 110.8 141.5Z" fill="#DBF0F8"/>
<path d="M110.8 66.1C104 66.1 97.7002 67.9 92.2002 70.9H107.2C125.4 70.9 140.4 85.6 140.4 103.6C140.4 121.6 125.5 136.3 107.2 136.3H92.2002C97.7002 139.4 104.1 141.1 110.8 141.1C131.7 141.1 148.9 124.2 148.9 103.5C148.9 82.8 131.8 65.9 110.8 65.9V66.1Z" fill="#DBF0F8"/>
<path d="M86.5998 127.5H92.5998H103.9C115.6 127.5 123.7 117.7 123.7 103.7C123.7 89.7 115.5 79.8 103.9 79.8H76.7998V127.6H86.5998V127.5ZM85.4998 120.3V87.1H86.6998H92.6998H102.2C110.1 87.1 115 93.5 115 103.8C115 114.1 110.1 120.4 102.2 120.4H92.5998H86.5998H85.4998V120.3Z" fill="#DBF0F8"/>
<path d="M171.7 129.7V77.7H189.8C193.8 77.7 196.9 78 199 78.4C202 79.1 204.6 80.4 206.7 82.2C209.4 84.5 211.5 87.5 212.9 91.1C214.2 94.7 214.9 98.8 214.9 103.4C214.9 108 214.4 110.8 213.5 113.8C212.6 116.8 211.4 119.4 209.9 121.4C208.5 123.4 206.8 125 205.1 126.2C203.4 127.4 201.3 128.2 198.8 128.8C196.4 129.4 193.6 129.7 190.5 129.7H171.6H171.7ZM189.9 122.6C193.2 122.6 195.8 122.3 197.6 121.7C199.4 121.1 200.9 120.3 202 119.2C203.5 117.7 204.7 115.6 205.6 113C206.5 110.4 206.9 107.1 206.9 103.3C206.9 99.5 206 94.1 204.4 91.3C202.7 88.6 200.7 86.7 198.3 85.8C196.6 85.1 193.7 84.8 189.8 84.8H179.6V122.7H189.9V122.6Z" fill="#DBF0F8"/>
<path d="M206.4 82.5C204.3 80.7 201.8 79.5 198.9 78.8C196.8 78.3 193.8 78.1 189.8 78.1H172.2V129.2H190.7C193.8 129.2 196.5 128.9 198.9 128.3C201.3 127.7 203.3 126.9 205 125.7C206.7 124.6 208.3 123 209.7 121.1C211.1 119.1 212.3 116.6 213.2 113.7C214.1 110.7 214.6 107.2 214.6 103.4C214.6 99.6 213.9 94.8 212.6 91.3C211.3 87.8 209.2 84.8 206.5 82.6L206.4 82.5ZM179.1 84.3H189.7C193.7 84.3 196.6 84.6 198.4 85.3C200.9 86.3 203 88.2 204.7 91C206.4 93.8 207.3 98 207.3 103.2C207.3 108.4 206.9 110.3 206 113C205.1 115.7 203.9 117.8 202.3 119.4C201.2 120.5 199.7 121.4 197.8 122C195.9 122.6 193.3 122.9 189.9 122.9H179.1V84.2V84.3Z" fill="#DBF0F8"/>
<path d="M243.4 130.6C238.5 130.6 234.1 129.4 230.3 127C226.5 124.6 223.5 121.4 221.5 117.3C219.5 113.2 218.5 108.9 218.5 104.3C218.5 95.7 220.8 88.9 225.5 84.1C230.1 79.2 236.2 76.8 243.5 76.8C250.8 76.8 252.6 78 256.5 80.2C260.3 82.5 263.3 85.7 265.3 89.8C267.3 93.9 268.3 98.6 268.3 103.7C268.3 108.8 267.2 113.7 265.1 117.8C263 122 259.9 125.1 256 127.3C252.1 129.4 247.9 130.5 243.4 130.5V130.6ZM243.5 83.6C238.9 83.6 234.9 85.2 231.5 88.4C228.2 91.6 226.5 97 226.5 104.4C226.5 111.8 228.1 115.1 231.3 118.5C234.5 121.9 238.5 123.6 243.3 123.6C248.1 123.6 252.3 121.9 255.4 118.4C258.6 114.9 260.2 110 260.2 103.6C260.2 97.2 259.5 96 258.1 93C256.7 90 254.7 87.7 252.1 86C249.5 84.4 246.5 83.5 243.3 83.5L243.5 83.6Z" fill="#DBF0F8"/>
<path d="M256.2 80.6C252.4 78.4 248.1 77.2 243.4 77.2C236.2 77.2 230.3 79.6 225.7 84.4C221.2 89.2 218.9 95.9 218.9 104.3C218.9 112.7 219.9 113.1 221.8 117.1C223.7 121.1 226.6 124.3 230.4 126.6C234.2 128.9 238.5 130.1 243.3 130.1C248.1 130.1 251.9 129 255.7 126.9C259.5 124.8 262.5 121.7 264.6 117.6C266.7 113.5 267.7 108.8 267.7 103.7C267.7 98.6 266.7 94 264.7 90C262.7 86 259.8 82.8 256 80.6H256.2ZM252.5 85.7C255.2 87.4 257.2 89.8 258.6 92.9C260 96 260.7 99.6 260.7 103.7C260.7 110.2 259.1 115.3 255.8 118.8C252.6 122.3 248.4 124.1 243.3 124.1C238.2 124.1 234.2 122.3 230.9 118.8C227.6 115.3 226 110.4 226 104.4C226 98.4 227.7 91.3 231.1 88C234.5 84.8 238.6 83.1 243.4 83.1C248.2 83.1 249.8 84 252.4 85.6L252.5 85.7Z" fill="#DBF0F8"/>
<path d="M293.3 130.6C288.6 130.6 284.7 129.9 281.5 128.5C278.3 127.1 275.8 125 273.9 122.2C272.2 119.6 271.3 116.7 271.1 113.6V112.3L278.4 111.7L278.6 112.9C278.9 115 279.6 116.8 280.5 118.2C281.5 119.7 283.2 121 285.4 122C287.6 123 290.2 123.5 293 123.5C295.8 123.5 297.7 123.1 299.6 122.4C301.5 121.7 302.9 120.7 303.8 119.4C304.7 118.2 305.1 116.8 305.1 115.4C305.1 114 304.7 112.6 303.8 111.5C302.9 110.4 301.5 109.4 299.4 108.7C298.1 108.2 295 107.4 290.4 106.2C285.7 105.1 282.3 104 280.4 103C277.9 101.7 276 100 274.8 98.1C273.6 96.1 272.9 93.9 272.9 91.5C272.9 89.1 273.7 86.3 275.2 84C276.7 81.7 278.9 79.9 281.8 78.7C284.7 77.5 287.9 76.9 291.4 76.9C294.9 76.9 298.7 77.5 301.6 78.8C304.6 80.1 306.9 81.9 308.5 84.4C310 86.6 310.8 89.1 311 91.9V93.2C311.1 93.2 303.6 93.8 303.6 93.8L303.4 92.6C303 89.9 301.9 87.8 300.2 86.4C298.3 84.8 295.4 84.1 291.7 84.1C288 84.1 284.9 84.8 283.1 86.2C281.4 87.6 280.5 89.3 280.5 91.2C280.5 93.1 281.1 94.3 282.3 95.3C283.5 96.4 286.9 97.6 292.2 98.8C297.7 100 301.5 101.1 303.6 102.1C306.6 103.5 308.9 105.3 310.4 107.5C311.9 109.7 312.6 112.2 312.6 115C312.6 117.8 311.8 120.5 310.2 123C308.6 125.5 306.3 127.4 303.3 128.8C300.3 130.2 297 130.8 293.3 130.8V130.6Z" fill="#DBF0F8"/>
<path d="M303.5 102.2C301.5 101.3 297.7 100.2 292.2 98.9C286.7 97.7 283.4 96.5 282.1 95.3C280.8 94.1 280.1 92.6 280.1 90.8C280.1 89 281 86.9 282.9 85.5C284.7 84 287.7 83.3 291.8 83.3C295.9 83.3 298.6 84.1 300.6 85.7C302.4 87.2 303.6 89.4 304 92.2V93C304.1 93 310.8 92.5 310.8 92.5V91.6C310.5 88.9 309.7 86.5 308.3 84.3C306.7 81.9 304.5 80.1 301.6 78.9C298.7 77.7 295.3 77.1 291.6 77.1C287.9 77.1 285 77.7 282.2 78.8C279.4 80 277.2 81.7 275.8 83.9C274.3 86.1 273.6 88.6 273.6 91.2C273.6 93.8 274.2 95.7 275.4 97.6C276.6 99.5 278.4 101.1 280.9 102.4C282.8 103.4 286.1 104.5 290.8 105.6C295.5 106.7 298.5 107.6 299.9 108.1C302 108.9 303.5 109.9 304.4 111.1C305.3 112.3 305.8 113.7 305.8 115.2C305.8 116.7 305.3 118.2 304.4 119.5C303.5 120.8 302 121.9 300 122.6C298.1 123.4 295.8 123.7 293.2 123.7C290.6 123.7 287.7 123.2 285.4 122.2C283.1 121.2 281.4 119.9 280.3 118.3C279.3 116.8 278.7 115 278.3 112.8V112C278.2 112 271.6 112.6 271.6 112.6V113.5C271.9 116.6 272.8 119.4 274.4 121.9C276.2 124.6 278.7 126.7 281.8 128C284.9 129.3 288.8 130 293.4 130C298 130 300.3 129.3 303.3 128C306.2 126.7 308.5 124.8 310 122.4C311.6 120 312.3 117.4 312.3 114.7C312.3 112 311.6 109.5 310.2 107.4C308.8 105.3 306.6 103.5 303.6 102.2H303.5Z" fill="#DBF0F8"/>
<path d="M338.2 130.6C333.5 130.6 329.6 129.9 326.4 128.5C323.2 127.1 320.7 125 318.8 122.2C317.1 119.6 316.2 116.7 316 113.6V112.3L323.3 111.7L323.5 112.9C323.8 115 324.5 116.8 325.4 118.2C326.4 119.7 328.1 121 330.3 122C332.5 123 335.1 123.5 337.9 123.5C340.7 123.5 342.6 123.1 344.5 122.4C346.4 121.7 347.8 120.7 348.7 119.4C349.6 118.2 350 116.8 350 115.4C350 114 349.6 112.6 348.7 111.5C347.8 110.4 346.4 109.4 344.3 108.7C343 108.2 339.9 107.4 335.3 106.2C330.6 105.1 327.2 104 325.3 103C322.8 101.7 320.9 100 319.7 98.1C318.5 96.1 317.8 93.9 317.8 91.5C317.8 89.1 318.6 86.3 320.1 84C321.6 81.7 323.8 79.9 326.7 78.7C329.6 77.5 332.8 76.9 336.3 76.9C339.8 76.9 343.6 77.5 346.5 78.8C349.5 80.1 351.8 81.9 353.4 84.4C354.9 86.6 355.7 89.1 355.9 91.9V93.2C356 93.2 348.5 93.8 348.5 93.8L348.3 92.6C347.9 89.9 346.8 87.8 345.1 86.4C343.2 84.8 340.3 84.1 336.6 84.1C332.9 84.1 329.8 84.8 328 86.2C326.3 87.6 325.4 89.3 325.4 91.2C325.4 93.1 326 94.2 327.2 95.3C328.4 96.4 331.8 97.6 337.1 98.8C342.6 100 346.4 101.1 348.5 102.1C351.5 103.5 353.8 105.3 355.3 107.5C356.8 109.7 357.5 112.2 357.5 115C357.5 117.8 356.7 120.5 355.1 123C353.5 125.5 351.2 127.4 348.2 128.8C345.2 130.2 341.9 130.8 338.2 130.8V130.6Z" fill="#DBF0F8"/>
<path d="M348.4 102.2C346.4 101.3 342.6 100.2 337.1 98.9C331.6 97.7 328.3 96.5 327 95.3C325.7 94.1 325 92.6 325 90.8C325 89 325.9 86.9 327.8 85.5C329.6 84 332.6 83.3 336.7 83.3C340.8 83.3 343.5 84.1 345.5 85.7C347.3 87.2 348.5 89.4 348.9 92.2V93C349 93 355.7 92.5 355.7 92.5V91.6C355.4 88.9 354.6 86.5 353.2 84.3C351.6 81.9 349.4 80.1 346.5 78.9C343.6 77.7 340.2 77.1 336.5 77.1C332.8 77.1 329.9 77.7 327.1 78.8C324.3 80 322.1 81.7 320.7 83.9C319.2 86.1 318.5 88.6 318.5 91.2C318.5 93.8 319.1 95.7 320.3 97.6C321.5 99.5 323.3 101.1 325.8 102.4C327.7 103.4 331 104.5 335.7 105.6C340.4 106.7 343.4 107.6 344.8 108.1C346.9 108.9 348.4 109.9 349.3 111.1C350.2 112.3 350.7 113.7 350.7 115.2C350.7 116.7 350.2 118.2 349.3 119.5C348.4 120.8 346.9 121.9 344.9 122.6C343 123.4 340.7 123.7 338.1 123.7C335.5 123.7 332.6 123.2 330.3 122.2C328 121.2 326.3 119.9 325.2 118.3C324.2 116.8 323.6 115 323.2 112.8V112C323.1 112 316.5 112.6 316.5 112.6V113.5C316.8 116.6 317.7 119.4 319.3 121.9C321.1 124.6 323.6 126.7 326.7 128C329.8 129.3 333.7 130 338.3 130C342.9 130 345.2 129.3 348.2 128C351.1 126.7 353.4 124.8 354.9 122.4C356.5 120 357.2 117.4 357.2 114.7C357.2 112 356.5 109.5 355.1 107.4C353.7 105.3 351.5 103.5 348.5 102.2H348.4Z" fill="#DBF0F8"/>
<path d="M396.6 129.7V105.7H371.2V129.7H363.4V77.7H371.2V98.6H396.6V77.7H404.4V129.7H396.6Z" fill="#DBF0F8"/>
<path d="M397.1 99H370.7V78.1H363.8V129.2H370.7V105.2H397.1V129.2H404V78.1H397.1V99Z" fill="#DBF0F8"/>
<path d="M412 129.7V77.7H431.8C435.2 77.7 437.8 77.9 439.6 78.2C442.2 78.6 444.3 79.5 446.1 80.7C447.9 81.9 449.3 83.6 450.4 85.8C451.5 88 452 90.4 452 93C452 97.4 450.6 101.3 447.7 104.4C444.9 107.5 439.7 109.1 432.4 109.1H419.9V129.8H412.1L412 129.7ZM432.5 101.9C436.7 101.9 439.7 101.1 441.4 99.6C443.1 98.1 444 95.9 444 93.2C444 90.5 443.5 89.5 442.5 88C441.5 86.6 440.2 85.7 438.5 85.2C437.8 85 436.1 84.8 432.4 84.8H419.9V101.9H432.5Z" fill="#DBF0F8"/>
<path d="M447.4 104C450.2 101 451.6 97.3 451.6 92.9C451.6 88.5 451.1 88 450 85.9C449 83.8 447.6 82.1 445.9 80.9C444.2 79.7 442.1 78.9 439.6 78.5C437.8 78.2 435.2 78 431.8 78H412.5V129.1H419.4V108.4H432.4C439.6 108.4 444.6 106.9 447.4 103.9V104ZM444.4 93.1C444.4 96 443.5 98.3 441.7 99.9C439.9 101.5 436.8 102.3 432.5 102.3H419.4V84.3H432.3C436.1 84.3 437.8 84.5 438.6 84.7C440.3 85.2 441.7 86.2 442.8 87.7C443.9 89.2 444.4 91 444.4 93.1Z" fill="#DBF0F8"/>
<path d="M486.2 129.7L480.3 114.3H459.7L454.1 129.7H445.8L465.8 77.7H473.8L495.1 129.7H486.3H486.2ZM477.8 107.7L472.8 94.3C471.5 91 470.5 88.1 469.8 85.7C469.2 88.3 468.4 90.9 467.5 93.5L462.2 107.7H477.9H477.8Z" fill="#DBF0F8"/>
<path d="M466.1 78.1L446.5 129.2H453.9L459.5 113.8H480.7L486.6 129.2H494.5L473.6 78.1H466.2H466.1ZM461.4 108.1L467 93.3C468.1 90.4 468.9 87.5 469.5 84.6V83.9C469.6 83.9 469.8 84.6 469.8 84.6C470.6 87.2 471.7 90.4 473.1 94.1L478.4 108.1H461.4Z" fill="#DBF0F8"/>
<path d="M505.6 129.7V107.7L485.5 77.6H495L505.2 93.2C506.9 95.8 508.5 98.4 509.9 101C511.3 98.5 513.1 95.8 515 92.8L525 77.6H534.2L513.4 107.7V129.7H505.6Z" fill="#DBF0F8"/>
<path d="M525.3 78.1L515.4 93.1C513.3 96.2 511.6 99.1 510.1 101.7L509.9 102L509.7 101.7C508.2 99 506.5 96.2 504.7 93.5L494.6 78.1H486.2L505.9 107.6V129.2H512.8V107.6L533.2 78.1H525.1H525.3Z" fill="#DBF0F8"/>
<path d="M1111.3 68.1C1114.4 67.6 1115.3 69.6 1116.6 71.9C1127.4 91.3 1127.5 116.8 1118.2 136.7C1117.6 138 1115.6 142.2 1114.6 143C1112.5 144.7 1109.4 143.6 1108.4 141.2C1107.8 139.7 1108.4 139 1109 137.6C1110.3 134.6 1111.9 131.7 1113.1 128.6C1118.7 113.6 1118.4 96.2 1112.4 81.4C1111.4 78.9 1110.1 76.6 1109 74.2C1108.5 72.9 1107.8 72.1 1108.3 70.7C1108.8 69.4 1109.8 68.3 1111.2 68.1H1111.3Z" fill="#DBF0F8"/>
<path d="M1096.5 75.8C1099.6 75.2 1100.5 76.7 1101.8 79.1C1110.2 94 1110.8 112.7 1104.1 128.4C1103.1 130.7 1101.1 135.2 1098.8 136.2C1096.5 137.2 1093.3 134.6 1093.8 131.9C1095.4 128.1 1097.3 124.6 1098.6 120.7C1102 110.2 1101.6 98.5 1097.5 88.3C1096.6 86.2 1094.1 82 1093.8 80C1093.5 78 1094.6 76.2 1096.5 75.9V75.8Z" fill="#DBF0F8"/>
<path d="M1080.3 84.3C1082.5 82.1 1085 83.1 1086.5 85.4C1094.1 96.5 1093.9 115.1 1086.7 126.3C1085.3 128.5 1083.2 129.9 1080.8 128C1078.4 126.1 1080.4 121.9 1081.7 119C1086.4 107.6 1084.8 100.5 1080.1 89.7C1079.2 87.6 1078.5 86.1 1080.3 84.3Z" fill="#DBF0F8"/>
<path d="M1068.4 90.5C1072.1 90 1074.8 96.2 1075.7 99.1C1077 103.5 1077.1 108 1075.9 112.5C1075 115.7 1071.3 124.4 1066.8 120.9C1062.8 117.8 1067.1 114.1 1068.3 110.6C1069.6 106.9 1069.3 103.7 1067.8 100.2C1066.3 96.7 1065.1 96 1065.1 94.3C1065.1 92.6 1066.7 90.7 1068.4 90.5Z" fill="#DBF0F8"/>
</g>
<defs>
<linearGradient id="paint0_linear_4156_6094" x1="1200" y1="382.6" x2="0" y2="382.6" gradientUnits="userSpaceOnUse">
<stop stop-color="#7EE7F0"/>
<stop offset="0.2" stop-color="#5CCDDA"/>
<stop offset="0.4" stop-color="#39B2C3"/>
<stop offset="0.6" stop-color="#1F9EB2"/>
<stop offset="0.8" stop-color="#1093A8"/>
<stop offset="1" stop-color="#0B8FA5"/>
</linearGradient>
<clipPath id="clip0_4156_6094">
<rect width="1200" height="765.3" fill="white"/>
</clipPath>
</defs>
</svg>
