<svg width="1200" height="766" viewBox="0 0 1200 766" fill="none" xmlns="http://www.w3.org/2000/svg">
<g clip-path="url(#clip0_4156_6068)">
<path d="M37.2 765.3L1162.8 765.3C1183.34 765.3 1200 748.645 1200 728.1V37.2001C1200 16.6551 1183.34 6.10352e-05 1162.8 6.10352e-05L37.2 6.10352e-05C16.6549 6.10352e-05 0 16.6551 0 37.2001V728.1C0 748.645 16.6549 765.3 37.2 765.3Z" fill="url(#paint0_linear_4156_6068)"/>
<path d="M110.8 141.5C104.2 141.5 97.6999 139.8 91.9999 136.6L90.8999 136H107.2C125.3 136 140 121.5 140 103.6C140 85.7 125.3 71.2 107.2 71.2H90.8999L91.9999 70.6C97.6999 67.4 104.2 65.7 110.8 65.7C132 65.7 149.2 82.7 149.2 103.6C149.2 124.5 132 141.5 110.8 141.5Z" fill="#DBF0F8"/>
<path d="M110.8 66.0999C104 66.0999 97.7002 67.8999 92.2002 70.8999H107.2C125.4 70.8999 140.4 85.5999 140.4 103.6C140.4 121.6 125.5 136.3 107.2 136.3H92.2002C97.7002 139.4 104.1 141.1 110.8 141.1C131.7 141.1 148.9 124.2 148.9 103.5C148.9 82.7999 131.8 65.8999 110.8 65.8999V66.0999Z" fill="#DBF0F8"/>
<path d="M86.5998 127.5H92.5998H103.9C115.6 127.5 123.7 117.7 123.7 103.7C123.7 89.7 115.5 79.8 103.9 79.8H76.7998V127.6H86.5998V127.5ZM85.4998 120.3V87.1H86.6998H92.6998H102.2C110.1 87.1 115 93.5 115 103.8C115 114.1 110.1 120.4 102.2 120.4H92.5998H86.5998H85.4998V120.3Z" fill="#DBF0F8"/>
<path d="M171.7 129.7V77.7H189.8C193.8 77.7 196.9 78 199 78.4C202 79.1 204.6 80.4 206.7 82.2C209.4 84.5 211.5 87.5 212.9 91.1C214.2 94.7 214.9 98.8 214.9 103.4C214.9 108 214.4 110.8 213.5 113.8C212.6 116.8 211.4 119.4 209.9 121.4C208.5 123.4 206.8 125 205.1 126.2C203.4 127.4 201.3 128.2 198.8 128.8C196.4 129.4 193.6 129.7 190.5 129.7H171.6H171.7ZM189.9 122.6C193.2 122.6 195.8 122.3 197.6 121.7C199.4 121.1 200.9 120.3 202 119.2C203.5 117.7 204.7 115.6 205.6 113C206.5 110.4 206.9 107.1 206.9 103.3C206.9 99.5 206 94.1 204.4 91.3C202.7 88.6 200.7 86.7 198.3 85.8C196.6 85.1 193.7 84.8 189.8 84.8H179.6V122.7H189.9V122.6Z" fill="#DBF0F8"/>
<path d="M206.4 82.5001C204.3 80.7001 201.8 79.5001 198.9 78.8001C196.8 78.3001 193.8 78.1001 189.8 78.1001H172.2V129.2H190.7C193.8 129.2 196.5 128.9 198.9 128.3C201.3 127.7 203.3 126.9 205 125.7C206.7 124.6 208.3 123 209.7 121.1C211.1 119.1 212.3 116.6 213.2 113.7C214.1 110.7 214.6 107.2 214.6 103.4C214.6 99.6001 213.9 94.8001 212.6 91.3001C211.3 87.8001 209.2 84.8001 206.5 82.6001L206.4 82.5001ZM179.1 84.3001H189.7C193.7 84.3001 196.6 84.6001 198.4 85.3001C200.9 86.3001 203 88.2001 204.7 91.0001C206.4 93.8001 207.3 98.0001 207.3 103.2C207.3 108.4 206.9 110.3 206 113C205.1 115.7 203.9 117.8 202.3 119.4C201.2 120.5 199.7 121.4 197.8 122C195.9 122.6 193.3 122.9 189.9 122.9H179.1V84.2001V84.3001Z" fill="#DBF0F8"/>
<path d="M243.4 130.6C238.5 130.6 234.1 129.4 230.3 127C226.5 124.6 223.5 121.4 221.5 117.3C219.5 113.2 218.5 108.9 218.5 104.3C218.5 95.7 220.8 88.9 225.5 84.1C230.1 79.2 236.2 76.8 243.5 76.8C250.8 76.8 252.6 78 256.5 80.2C260.3 82.5 263.3 85.7 265.3 89.8C267.3 93.9 268.3 98.6 268.3 103.7C268.3 108.8 267.2 113.7 265.1 117.8C263 122 259.9 125.1 256 127.3C252.1 129.4 247.9 130.5 243.4 130.5V130.6ZM243.5 83.6C238.9 83.6 234.9 85.2 231.5 88.4C228.2 91.6 226.5 97 226.5 104.4C226.5 111.8 228.1 115.1 231.3 118.5C234.5 121.9 238.5 123.6 243.3 123.6C248.1 123.6 252.3 121.9 255.4 118.4C258.6 114.9 260.2 110 260.2 103.6C260.2 97.2 259.5 96 258.1 93C256.7 90 254.7 87.7 252.1 86C249.5 84.4 246.5 83.5 243.3 83.5L243.5 83.6Z" fill="#DBF0F8"/>
<path d="M256.2 80.6C252.4 78.4 248.1 77.2 243.4 77.2C236.2 77.2 230.3 79.6 225.7 84.4C221.2 89.2 218.9 95.9 218.9 104.3C218.9 112.7 219.9 113.1 221.8 117.1C223.7 121.1 226.6 124.3 230.4 126.6C234.2 128.9 238.5 130.1 243.3 130.1C248.1 130.1 251.9 129 255.7 126.9C259.5 124.8 262.5 121.7 264.6 117.6C266.7 113.5 267.7 108.8 267.7 103.7C267.7 98.6 266.7 94 264.7 90C262.7 86 259.8 82.8 256 80.6H256.2ZM252.5 85.7C255.2 87.4 257.2 89.8 258.6 92.9C260 96 260.7 99.6 260.7 103.7C260.7 110.2 259.1 115.3 255.8 118.8C252.6 122.3 248.4 124.1 243.3 124.1C238.2 124.1 234.2 122.3 230.9 118.8C227.6 115.3 226 110.4 226 104.4C226 98.4 227.7 91.3 231.1 88C234.5 84.8 238.6 83.1 243.4 83.1C248.2 83.1 249.8 84 252.4 85.6L252.5 85.7Z" fill="#DBF0F8"/>
<path d="M293.3 130.6C288.6 130.6 284.7 129.9 281.5 128.5C278.3 127.1 275.8 125 273.9 122.2C272.2 119.6 271.3 116.7 271.1 113.6V112.3L278.4 111.7L278.6 112.9C278.9 115 279.6 116.8 280.5 118.2C281.5 119.7 283.2 121 285.4 122C287.6 123 290.2 123.5 293 123.5C295.8 123.5 297.7 123.1 299.6 122.4C301.5 121.7 302.9 120.7 303.8 119.4C304.7 118.2 305.1 116.8 305.1 115.4C305.1 114 304.7 112.6 303.8 111.5C302.9 110.4 301.5 109.4 299.4 108.7C298.1 108.2 295 107.4 290.4 106.2C285.7 105.1 282.3 104 280.4 103C277.9 101.7 276 99.9999 274.8 98.0999C273.6 96.0999 272.9 93.8999 272.9 91.4999C272.9 89.0999 273.7 86.2999 275.2 83.9999C276.7 81.6999 278.9 79.8999 281.8 78.6999C284.7 77.4999 287.9 76.8999 291.4 76.8999C294.9 76.8999 298.7 77.4999 301.6 78.7999C304.6 80.0999 306.9 81.8999 308.5 84.3999C310 86.5999 310.8 89.0999 311 91.8999V93.1999C311.1 93.1999 303.6 93.7999 303.6 93.7999L303.4 92.5999C303 89.8999 301.9 87.7999 300.2 86.3999C298.3 84.7999 295.4 84.0999 291.7 84.0999C288 84.0999 284.9 84.7999 283.1 86.1999C281.4 87.5999 280.5 89.2999 280.5 91.1999C280.5 93.0999 281.1 94.2999 282.3 95.2999C283.5 96.3999 286.9 97.5999 292.2 98.7999C297.7 99.9999 301.5 101.1 303.6 102.1C306.6 103.5 308.9 105.3 310.4 107.5C311.9 109.7 312.6 112.2 312.6 115C312.6 117.8 311.8 120.5 310.2 123C308.6 125.5 306.3 127.4 303.3 128.8C300.3 130.2 297 130.8 293.3 130.8V130.6Z" fill="#DBF0F8"/>
<path d="M303.5 102.2C301.5 101.3 297.7 100.2 292.2 98.9001C286.7 97.7001 283.4 96.5001 282.1 95.3001C280.8 94.1001 280.1 92.6001 280.1 90.8001C280.1 89.0001 281 86.9001 282.9 85.5001C284.7 84.0001 287.7 83.3001 291.8 83.3001C295.9 83.3001 298.6 84.1001 300.6 85.7001C302.4 87.2001 303.6 89.4001 304 92.2001V93.0001C304.1 93.0001 310.8 92.5001 310.8 92.5001V91.6001C310.5 88.9001 309.7 86.5001 308.3 84.3001C306.7 81.9001 304.5 80.1001 301.6 78.9001C298.7 77.7001 295.3 77.1001 291.6 77.1001C287.9 77.1001 285 77.7001 282.2 78.8001C279.4 80.0001 277.2 81.7001 275.8 83.9001C274.3 86.1001 273.6 88.6001 273.6 91.2001C273.6 93.8001 274.2 95.7001 275.4 97.6001C276.6 99.5001 278.4 101.1 280.9 102.4C282.8 103.4 286.1 104.5 290.8 105.6C295.5 106.7 298.5 107.6 299.9 108.1C302 108.9 303.5 109.9 304.4 111.1C305.3 112.3 305.8 113.7 305.8 115.2C305.8 116.7 305.3 118.2 304.4 119.5C303.5 120.8 302 121.9 300 122.6C298.1 123.4 295.8 123.7 293.2 123.7C290.6 123.7 287.7 123.2 285.4 122.2C283.1 121.2 281.4 119.9 280.3 118.3C279.3 116.8 278.7 115 278.3 112.8V112C278.2 112 271.6 112.6 271.6 112.6V113.5C271.9 116.6 272.8 119.4 274.4 121.9C276.2 124.6 278.7 126.7 281.8 128C284.9 129.3 288.8 130 293.4 130C298 130 300.3 129.3 303.3 128C306.2 126.7 308.5 124.8 310 122.4C311.6 120 312.3 117.4 312.3 114.7C312.3 112 311.6 109.5 310.2 107.4C308.8 105.3 306.6 103.5 303.6 102.2H303.5Z" fill="#DBF0F8"/>
<path d="M338.2 130.6C333.5 130.6 329.6 129.9 326.4 128.5C323.2 127.1 320.7 125 318.8 122.2C317.1 119.6 316.2 116.7 316 113.6V112.3L323.3 111.7L323.5 112.9C323.8 115 324.5 116.8 325.4 118.2C326.4 119.7 328.1 121 330.3 122C332.5 123 335.1 123.5 337.9 123.5C340.7 123.5 342.6 123.1 344.5 122.4C346.4 121.7 347.8 120.7 348.7 119.4C349.6 118.2 350 116.8 350 115.4C350 114 349.6 112.6 348.7 111.5C347.8 110.4 346.4 109.4 344.3 108.7C343 108.2 339.9 107.4 335.3 106.2C330.6 105.1 327.2 104 325.3 103C322.8 101.7 320.9 99.9999 319.7 98.0999C318.5 96.0999 317.8 93.8999 317.8 91.4999C317.8 89.0999 318.6 86.2999 320.1 83.9999C321.6 81.6999 323.8 79.8999 326.7 78.6999C329.6 77.4999 332.8 76.8999 336.3 76.8999C339.8 76.8999 343.6 77.4999 346.5 78.7999C349.5 80.0999 351.8 81.8999 353.4 84.3999C354.9 86.5999 355.7 89.0999 355.9 91.8999V93.1999C356 93.1999 348.5 93.7999 348.5 93.7999L348.3 92.5999C347.9 89.8999 346.8 87.7999 345.1 86.3999C343.2 84.7999 340.3 84.0999 336.6 84.0999C332.9 84.0999 329.8 84.7999 328 86.1999C326.3 87.5999 325.4 89.2999 325.4 91.1999C325.4 93.0999 326 94.1999 327.2 95.2999C328.4 96.3999 331.8 97.5999 337.1 98.7999C342.6 99.9999 346.4 101.1 348.5 102.1C351.5 103.5 353.8 105.3 355.3 107.5C356.8 109.7 357.5 112.2 357.5 115C357.5 117.8 356.7 120.5 355.1 123C353.5 125.5 351.2 127.4 348.2 128.8C345.2 130.2 341.9 130.8 338.2 130.8V130.6Z" fill="#DBF0F8"/>
<path d="M348.4 102.2C346.4 101.3 342.6 100.2 337.1 98.9001C331.6 97.7001 328.3 96.5001 327 95.3001C325.7 94.1001 325 92.6001 325 90.8001C325 89.0001 325.9 86.9001 327.8 85.5001C329.6 84.0001 332.6 83.3001 336.7 83.3001C340.8 83.3001 343.5 84.1001 345.5 85.7001C347.3 87.2001 348.5 89.4001 348.9 92.2001V93.0001C349 93.0001 355.7 92.5001 355.7 92.5001V91.6001C355.4 88.9001 354.6 86.5001 353.2 84.3001C351.6 81.9001 349.4 80.1001 346.5 78.9001C343.6 77.7001 340.2 77.1001 336.5 77.1001C332.8 77.1001 329.9 77.7001 327.1 78.8001C324.3 80.0001 322.1 81.7001 320.7 83.9001C319.2 86.1001 318.5 88.6001 318.5 91.2001C318.5 93.8001 319.1 95.7001 320.3 97.6001C321.5 99.5001 323.3 101.1 325.8 102.4C327.7 103.4 331 104.5 335.7 105.6C340.4 106.7 343.4 107.6 344.8 108.1C346.9 108.9 348.4 109.9 349.3 111.1C350.2 112.3 350.7 113.7 350.7 115.2C350.7 116.7 350.2 118.2 349.3 119.5C348.4 120.8 346.9 121.9 344.9 122.6C343 123.4 340.7 123.7 338.1 123.7C335.5 123.7 332.6 123.2 330.3 122.2C328 121.2 326.3 119.9 325.2 118.3C324.2 116.8 323.6 115 323.2 112.8V112C323.1 112 316.5 112.6 316.5 112.6V113.5C316.8 116.6 317.7 119.4 319.3 121.9C321.1 124.6 323.6 126.7 326.7 128C329.8 129.3 333.7 130 338.3 130C342.9 130 345.2 129.3 348.2 128C351.1 126.7 353.4 124.8 354.9 122.4C356.5 120 357.2 117.4 357.2 114.7C357.2 112 356.5 109.5 355.1 107.4C353.7 105.3 351.5 103.5 348.5 102.2H348.4Z" fill="#DBF0F8"/>
<path d="M396.6 129.7V105.7H371.2V129.7H363.4V77.7H371.2V98.6H396.6V77.7H404.4V129.7H396.6Z" fill="#DBF0F8"/>
<path d="M397.1 99.0001H370.7V78.1001H363.8V129.2H370.7V105.2H397.1V129.2H404V78.1001H397.1V99.0001Z" fill="#DBF0F8"/>
<path d="M412 129.7V77.7H431.8C435.2 77.7 437.8 77.9 439.6 78.2C442.2 78.6 444.3 79.5 446.1 80.7C447.9 81.9 449.3 83.6 450.4 85.8C451.5 88 452 90.4 452 93C452 97.4 450.6 101.3 447.7 104.4C444.9 107.5 439.7 109.1 432.4 109.1H419.9V129.8H412.1L412 129.7ZM432.5 101.9C436.7 101.9 439.7 101.1 441.4 99.6C443.1 98.1 444 95.9 444 93.2C444 90.5 443.5 89.5 442.5 88C441.5 86.6 440.2 85.7 438.5 85.2C437.8 85 436.1 84.8 432.4 84.8H419.9V101.9H432.5Z" fill="#DBF0F8"/>
<path d="M447.4 104C450.2 101 451.6 97.3 451.6 92.9C451.6 88.5 451.1 88 450 85.9C449 83.8 447.6 82.1 445.9 80.9C444.2 79.7 442.1 78.9 439.6 78.5C437.8 78.2 435.2 78 431.8 78H412.5V129.1H419.4V108.4H432.4C439.6 108.4 444.6 106.9 447.4 103.9V104ZM444.4 93.1C444.4 96 443.5 98.3 441.7 99.9C439.9 101.5 436.8 102.3 432.5 102.3H419.4V84.3H432.3C436.1 84.3 437.8 84.5 438.6 84.7C440.3 85.2 441.7 86.2 442.8 87.7C443.9 89.2 444.4 91 444.4 93.1Z" fill="#DBF0F8"/>
<path d="M486.2 129.7L480.3 114.3H459.7L454.1 129.7H445.8L465.8 77.7H473.8L495.1 129.7H486.3H486.2ZM477.8 107.7L472.8 94.3C471.5 91 470.5 88.1 469.8 85.7C469.2 88.3 468.4 90.9 467.5 93.5L462.2 107.7H477.9H477.8Z" fill="#DBF0F8"/>
<path d="M466.1 78.1001L446.5 129.2H453.9L459.5 113.8H480.7L486.6 129.2H494.5L473.6 78.1001H466.2H466.1ZM461.4 108.1L467 93.3001C468.1 90.4001 468.9 87.5001 469.5 84.6001V83.9001C469.6 83.9001 469.8 84.6001 469.8 84.6001C470.6 87.2001 471.7 90.4001 473.1 94.1001L478.4 108.1H461.4Z" fill="#DBF0F8"/>
<path d="M505.6 129.7V107.7L485.5 77.6001H495L505.2 93.2001C506.9 95.8001 508.5 98.4001 509.9 101C511.3 98.5001 513.1 95.8001 515 92.8001L525 77.6001H534.2L513.4 107.7V129.7H505.6Z" fill="#DBF0F8"/>
<path d="M525.3 78.1001L515.4 93.1001C513.3 96.2001 511.6 99.1001 510.1 101.7L509.9 102L509.7 101.7C508.2 99.0001 506.5 96.2001 504.7 93.5001L494.6 78.1001H486.2L505.9 107.6V129.2H512.8V107.6L533.2 78.1001H525.1H525.3Z" fill="#DBF0F8"/>
<path d="M1109.4 70.4001C1112.5 69.9001 1113.4 71.9001 1114.7 74.2001C1125.5 93.6001 1125.6 119.1 1116.3 139C1115.7 140.3 1113.7 144.5 1112.7 145.3C1110.6 147 1107.5 145.9 1106.5 143.5C1105.9 142 1106.5 141.3 1107.1 139.9C1108.4 136.9 1110 134 1111.2 130.9C1116.8 115.9 1116.5 98.5001 1110.5 83.7001C1109.5 81.2001 1108.2 78.9001 1107.1 76.5001C1106.6 75.2001 1105.9 74.4001 1106.4 73.0001C1106.9 71.7001 1107.9 70.6001 1109.3 70.4001H1109.4Z" fill="#DBF0F8"/>
<path d="M1094.5 78.1001C1097.6 77.5001 1098.5 79.0001 1099.8 81.4001C1108.2 96.3001 1108.8 115 1102.1 130.7C1101.1 133 1099.1 137.5 1096.8 138.5C1094.5 139.5 1091.3 136.9 1091.8 134.2C1093.4 130.4 1095.3 126.9 1096.6 123C1100 112.5 1099.6 100.8 1095.5 90.6001C1094.6 88.5001 1092.1 84.3001 1091.8 82.3001C1091.5 80.3001 1092.6 78.5001 1094.5 78.2001V78.1001Z" fill="#DBF0F8"/>
<path d="M1078.3 86.6001C1080.5 84.4001 1083 85.4001 1084.5 87.7001C1092.1 98.8001 1091.9 117.4 1084.7 128.6C1083.3 130.8 1081.2 132.2 1078.8 130.3C1076.4 128.4 1078.4 124.2 1079.7 121.3C1084.4 109.9 1082.8 102.8 1078.1 92.0001C1077.2 89.9001 1076.5 88.4001 1078.3 86.6001Z" fill="#DBF0F8"/>
<path d="M1066.5 92.8C1070.2 92.3 1072.9 98.5 1073.8 101.4C1075.1 105.8 1075.2 110.3 1074 114.8C1073.1 118 1069.4 126.7 1064.9 123.2C1060.4 119.7 1065.2 116.4 1066.4 112.9C1067.7 109.2 1067.4 106 1065.9 102.5C1065.2 100.9 1063.2 98.3 1063.2 96.6C1063.2 94.9 1064.8 93 1066.5 92.8Z" fill="#DBF0F8"/>
</g>
<defs>
<linearGradient id="paint0_linear_4156_6068" x1="105" y1="382.6" x2="1076.4" y2="382.6" gradientUnits="userSpaceOnUse">
<stop stop-color="#8A8F9C"/>
<stop offset="0.2" stop-color="#9A9FAB"/>
<stop offset="0.5" stop-color="#B4B7C2"/>
<stop offset="0.8" stop-color="#C3C6D1"/>
<stop offset="1" stop-color="#C9CCD6"/>
</linearGradient>
<clipPath id="clip0_4156_6068">
<rect width="1200" height="765.3" fill="white"/>
</clipPath>
</defs>
</svg>
