<svg width="1200" height="766" viewBox="0 0 1200 766" fill="none" xmlns="http://www.w3.org/2000/svg">
<g clip-path="url(#clip0_4156_6120)">
<path d="M37.2 765.3L1162.8 765.3C1183.34 765.3 1200 748.645 1200 728.1V37.2001C1200 16.6551 1183.34 6.10352e-05 1162.8 6.10352e-05L37.2 6.10352e-05C16.6549 6.10352e-05 0 16.6551 0 37.2001V728.1C0 748.645 16.6549 765.3 37.2 765.3Z" fill="url(#paint0_linear_4156_6120)"/>
<path d="M108.8 141.5C102.2 141.5 95.6999 139.8 89.9999 136.6L88.8999 136H105.2C123.3 136 138 121.5 138 103.6C138 85.7 123.3 71.2 105.2 71.2H88.8999L89.9999 70.6C95.6999 67.4 102.2 65.7 108.8 65.7C130 65.7 147.2 82.7 147.2 103.6C147.2 124.5 130 141.5 108.8 141.5Z" fill="#DBF0F8"/>
<path d="M108.8 66.1C102 66.1 95.7002 67.9 90.2002 70.9H105.2C123.4 70.9 138.4 85.6 138.4 103.6C138.4 121.6 123.5 136.3 105.2 136.3H90.2002C95.7002 139.4 102.1 141.1 108.8 141.1C129.7 141.1 146.9 124.2 146.9 103.5C146.9 82.8 129.8 65.9 108.8 65.9V66.1Z" fill="#DBF0F8"/>
<path d="M84.5998 127.5H90.5998H101.9C113.6 127.5 121.7 117.7 121.7 103.7C121.7 89.7 113.5 79.8 101.9 79.8H74.7998V127.6H84.5998V127.5ZM83.4998 120.3V87.1H84.6998H90.6998H100.2C108.1 87.1 113 93.5 113 103.8C113 114.1 108.1 120.4 100.2 120.4H90.5998H84.5998H83.4998V120.3Z" fill="#DBF0F8"/>
<path d="M169.7 129.7V77.7H187.8C191.8 77.7 194.9 78 197 78.4C200 79.1 202.6 80.4 204.7 82.2C207.4 84.5 209.5 87.5 210.9 91.1C212.2 94.7 212.9 98.8 212.9 103.4C212.9 108 212.4 110.8 211.5 113.8C210.6 116.8 209.4 119.4 207.9 121.4C206.5 123.4 204.8 125 203.1 126.2C201.4 127.4 199.3 128.2 196.8 128.8C194.4 129.4 191.6 129.7 188.5 129.7H169.6H169.7ZM187.9 122.6C191.2 122.6 193.8 122.3 195.6 121.7C197.4 121.1 198.9 120.3 200 119.2C201.5 117.7 202.7 115.6 203.6 113C204.5 110.4 204.9 107.1 204.9 103.3C204.9 99.5 204 94.1 202.4 91.3C200.7 88.6 198.7 86.7 196.3 85.8C194.6 85.1 191.7 84.8 187.8 84.8H177.6V122.7H187.9V122.6Z" fill="#DBF0F8"/>
<path d="M204.4 82.5C202.3 80.7 199.8 79.5 196.9 78.8C194.8 78.3 191.8 78.1 187.8 78.1H170.2V129.2H188.7C191.8 129.2 194.5 128.9 196.9 128.3C199.3 127.7 201.3 126.9 203 125.7C204.7 124.6 206.3 123 207.7 121.1C209.1 119.1 210.3 116.6 211.2 113.7C212.1 110.7 212.6 107.2 212.6 103.4C212.6 99.6 211.9 94.8 210.6 91.3C209.3 87.8 207.2 84.8 204.5 82.6L204.4 82.5ZM177.1 84.3H187.7C191.7 84.3 194.6 84.6 196.4 85.3C198.9 86.3 201 88.2 202.7 91C204.4 93.8 205.3 98 205.3 103.2C205.3 108.4 204.9 110.3 204 113C203.1 115.7 201.9 117.8 200.3 119.4C199.2 120.5 197.7 121.4 195.8 122C193.9 122.6 191.3 122.9 187.9 122.9H177.1V84.2V84.3Z" fill="#DBF0F8"/>
<path d="M241.4 130.6C236.5 130.6 232.1 129.4 228.3 127C224.5 124.6 221.5 121.4 219.5 117.3C217.5 113.2 216.5 108.9 216.5 104.3C216.5 95.7 218.8 88.9 223.5 84.1C228.1 79.2 234.2 76.8 241.5 76.8C248.8 76.8 250.6 78 254.5 80.2C258.3 82.5 261.3 85.7 263.3 89.8C265.3 93.9 266.3 98.6 266.3 103.7C266.3 108.8 265.2 113.7 263.1 117.8C261 122 257.9 125.1 254 127.3C250.1 129.4 245.9 130.5 241.4 130.5V130.6ZM241.5 83.6C236.9 83.6 232.9 85.2 229.5 88.4C226.2 91.6 224.5 97 224.5 104.4C224.5 111.8 226.1 115.1 229.3 118.5C232.5 121.9 236.5 123.6 241.3 123.6C246.1 123.6 250.3 121.9 253.4 118.4C256.6 114.9 258.2 110 258.2 103.6C258.2 97.2 257.5 96 256.1 93C254.7 90 252.7 87.7 250.1 86C247.5 84.4 244.5 83.5 241.3 83.5L241.5 83.6Z" fill="#DBF0F8"/>
<path d="M254.2 80.6C250.4 78.4 246.1 77.2 241.4 77.2C234.2 77.2 228.3 79.6 223.7 84.4C219.2 89.2 216.9 95.9 216.9 104.3C216.9 112.7 217.9 113.1 219.8 117.1C221.7 121.1 224.6 124.3 228.4 126.6C232.2 128.9 236.5 130.1 241.3 130.1C246.1 130.1 249.9 129 253.7 126.9C257.5 124.8 260.5 121.7 262.6 117.6C264.7 113.5 265.7 108.8 265.7 103.7C265.7 98.6 264.7 94 262.7 90C260.7 86 257.8 82.8 254 80.6H254.2ZM250.5 85.7C253.2 87.4 255.2 89.8 256.6 92.9C258 96 258.7 99.6 258.7 103.7C258.7 110.2 257.1 115.3 253.8 118.8C250.6 122.3 246.4 124.1 241.3 124.1C236.2 124.1 232.2 122.3 228.9 118.8C225.6 115.3 224 110.4 224 104.4C224 98.4 225.7 91.3 229.1 88C232.5 84.8 236.6 83.1 241.4 83.1C246.2 83.1 247.8 84 250.4 85.6L250.5 85.7Z" fill="#DBF0F8"/>
<path d="M291.3 130.6C286.6 130.6 282.7 129.9 279.5 128.5C276.3 127.1 273.8 125 271.9 122.2C270.2 119.6 269.3 116.7 269.1 113.6V112.3L276.4 111.7L276.6 112.9C276.9 115 277.6 116.8 278.5 118.2C279.5 119.7 281.2 121 283.4 122C285.6 123 288.2 123.5 291 123.5C293.8 123.5 295.7 123.1 297.6 122.4C299.5 121.7 300.9 120.7 301.8 119.4C302.7 118.2 303.1 116.8 303.1 115.4C303.1 114 302.7 112.6 301.8 111.5C300.9 110.4 299.5 109.4 297.4 108.7C296.1 108.2 293 107.4 288.4 106.2C283.7 105.1 280.3 104 278.4 103C275.9 101.7 274 100 272.8 98.1C271.6 96.1 270.9 93.9 270.9 91.5C270.9 89.1 271.7 86.3 273.2 84C274.7 81.7 276.9 79.9 279.8 78.7C282.7 77.5 285.9 76.9 289.4 76.9C292.9 76.9 296.7 77.5 299.6 78.8C302.6 80.1 304.9 81.9 306.5 84.4C308 86.6 308.8 89.1 309 91.9V93.2C309.1 93.2 301.6 93.8 301.6 93.8L301.4 92.6C301 89.9 299.9 87.8 298.2 86.4C296.3 84.8 293.4 84.1 289.7 84.1C286 84.1 282.9 84.8 281.1 86.2C279.4 87.6 278.5 89.3 278.5 91.2C278.5 93.1 279.1 94.3 280.3 95.3C281.5 96.4 284.9 97.6 290.2 98.8C295.7 100 299.5 101.1 301.6 102.1C304.6 103.5 306.9 105.3 308.4 107.5C309.9 109.7 310.6 112.2 310.6 115C310.6 117.8 309.8 120.5 308.2 123C306.6 125.5 304.3 127.4 301.3 128.8C298.3 130.2 295 130.8 291.3 130.8V130.6Z" fill="#DBF0F8"/>
<path d="M301.5 102.2C299.5 101.3 295.7 100.2 290.2 98.9C284.7 97.7 281.4 96.5 280.1 95.3C278.8 94.1 278.1 92.6 278.1 90.8C278.1 89 279 86.9 280.9 85.5C282.7 84 285.7 83.3 289.8 83.3C293.9 83.3 296.6 84.1 298.6 85.7C300.4 87.2 301.6 89.4 302 92.2V93C302.1 93 308.8 92.5 308.8 92.5V91.6C308.5 88.9 307.7 86.5 306.3 84.3C304.7 81.9 302.5 80.1 299.6 78.9C296.7 77.7 293.3 77.1 289.6 77.1C285.9 77.1 283 77.7 280.2 78.8C277.4 80 275.2 81.7 273.8 83.9C272.3 86.1 271.6 88.6 271.6 91.2C271.6 93.8 272.2 95.7 273.4 97.6C274.6 99.5 276.4 101.1 278.9 102.4C280.8 103.4 284.1 104.5 288.8 105.6C293.5 106.7 296.5 107.6 297.9 108.1C300 108.9 301.5 109.9 302.4 111.1C303.3 112.3 303.8 113.7 303.8 115.2C303.8 116.7 303.3 118.2 302.4 119.5C301.5 120.8 300 121.9 298 122.6C296.1 123.4 293.8 123.7 291.2 123.7C288.6 123.7 285.7 123.2 283.4 122.2C281.1 121.2 279.4 119.9 278.3 118.3C277.3 116.8 276.7 115 276.3 112.8V112C276.2 112 269.6 112.6 269.6 112.6V113.5C269.9 116.6 270.8 119.4 272.4 121.9C274.2 124.6 276.7 126.7 279.8 128C282.9 129.3 286.8 130 291.4 130C296 130 298.3 129.3 301.3 128C304.2 126.7 306.5 124.8 308 122.4C309.6 120 310.3 117.4 310.3 114.7C310.3 112 309.6 109.5 308.2 107.4C306.8 105.3 304.6 103.5 301.6 102.2H301.5Z" fill="#DBF0F8"/>
<path d="M336.2 130.6C331.5 130.6 327.6 129.9 324.4 128.5C321.2 127.1 318.7 125 316.8 122.2C315.1 119.6 314.2 116.7 314 113.6V112.3L321.3 111.7L321.5 112.9C321.8 115 322.5 116.8 323.4 118.2C324.4 119.7 326.1 121 328.3 122C330.5 123 333.1 123.5 335.9 123.5C338.7 123.5 340.6 123.1 342.5 122.4C344.4 121.7 345.8 120.7 346.7 119.4C347.6 118.2 348 116.8 348 115.4C348 114 347.6 112.6 346.7 111.5C345.8 110.4 344.4 109.4 342.3 108.7C341 108.2 337.9 107.4 333.3 106.2C328.6 105.1 325.2 104 323.3 103C320.8 101.7 318.9 100 317.7 98.1C316.5 96.1 315.8 93.9 315.8 91.5C315.8 89.1 316.6 86.3 318.1 84C319.6 81.7 321.8 79.9 324.7 78.7C327.6 77.5 330.8 76.9 334.3 76.9C337.8 76.9 341.6 77.5 344.5 78.8C347.5 80.1 349.8 81.9 351.4 84.4C352.9 86.6 353.7 89.1 353.9 91.9V93.2C354 93.2 346.5 93.8 346.5 93.8L346.3 92.6C345.9 89.9 344.8 87.8 343.1 86.4C341.2 84.8 338.3 84.1 334.6 84.1C330.9 84.1 327.8 84.8 326 86.2C324.3 87.6 323.4 89.3 323.4 91.2C323.4 93.1 324 94.2 325.2 95.3C326.4 96.4 329.8 97.6 335.1 98.8C340.6 100 344.4 101.1 346.5 102.1C349.5 103.5 351.8 105.3 353.3 107.5C354.8 109.7 355.5 112.2 355.5 115C355.5 117.8 354.7 120.5 353.1 123C351.5 125.5 349.2 127.4 346.2 128.8C343.2 130.2 339.9 130.8 336.2 130.8V130.6Z" fill="#DBF0F8"/>
<path d="M346.4 102.2C344.4 101.3 340.6 100.2 335.1 98.9C329.6 97.7 326.3 96.5 325 95.3C323.7 94.1 323 92.6 323 90.8C323 89 323.9 86.9 325.8 85.5C327.6 84 330.6 83.3 334.7 83.3C338.8 83.3 341.5 84.1 343.5 85.7C345.3 87.2 346.5 89.4 346.9 92.2V93C347 93 353.7 92.5 353.7 92.5V91.6C353.4 88.9 352.6 86.5 351.2 84.3C349.6 81.9 347.4 80.1 344.5 78.9C341.6 77.7 338.2 77.1 334.5 77.1C330.8 77.1 327.9 77.7 325.1 78.8C322.3 80 320.1 81.7 318.7 83.9C317.2 86.1 316.5 88.6 316.5 91.2C316.5 93.8 317.1 95.7 318.3 97.6C319.5 99.5 321.3 101.1 323.8 102.4C325.7 103.4 329 104.5 333.7 105.6C338.4 106.7 341.4 107.6 342.8 108.1C344.9 108.9 346.4 109.9 347.3 111.1C348.2 112.3 348.7 113.7 348.7 115.2C348.7 116.7 348.2 118.2 347.3 119.5C346.4 120.8 344.9 121.9 342.9 122.6C341 123.4 338.7 123.7 336.1 123.7C333.5 123.7 330.6 123.2 328.3 122.2C326 121.2 324.3 119.9 323.2 118.3C322.2 116.8 321.6 115 321.2 112.8V112C321.1 112 314.5 112.6 314.5 112.6V113.5C314.8 116.6 315.7 119.4 317.3 121.9C319.1 124.6 321.6 126.7 324.7 128C327.8 129.3 331.7 130 336.3 130C340.9 130 343.2 129.3 346.2 128C349.1 126.7 351.4 124.8 352.9 122.4C354.5 120 355.2 117.4 355.2 114.7C355.2 112 354.5 109.5 353.1 107.4C351.7 105.3 349.5 103.5 346.5 102.2H346.4Z" fill="#DBF0F8"/>
<path d="M394.6 129.7V105.7H369.2V129.7H361.4V77.7H369.2V98.6H394.6V77.7H402.4V129.7H394.6Z" fill="#DBF0F8"/>
<path d="M395.1 99H368.7V78.1H361.8V129.2H368.7V105.2H395.1V129.2H402V78.1H395.1V99Z" fill="#DBF0F8"/>
<path d="M410 129.7V77.7H429.8C433.2 77.7 435.8 77.9 437.6 78.2C440.2 78.6 442.3 79.5 444.1 80.7C445.9 81.9 447.3 83.6 448.4 85.8C449.5 88 450 90.4 450 93C450 97.4 448.6 101.3 445.7 104.4C442.9 107.5 437.7 109.1 430.4 109.1H417.9V129.8H410.1L410 129.7ZM430.5 101.9C434.7 101.9 437.7 101.1 439.4 99.6C441.1 98.1 442 95.9 442 93.2C442 90.5 441.5 89.5 440.5 88C439.5 86.6 438.2 85.7 436.5 85.2C435.8 85 434.1 84.8 430.4 84.8H417.9V101.9H430.5Z" fill="#DBF0F8"/>
<path d="M445.4 104C448.2 101 449.6 97.3 449.6 92.9C449.6 88.5 449.1 88 448 85.9C447 83.8 445.6 82.1 443.9 80.9C442.2 79.7 440.1 78.9 437.6 78.5C435.8 78.2 433.2 78 429.8 78H410.5V129.1H417.4V108.4H430.4C437.6 108.4 442.6 106.9 445.4 103.9V104ZM442.4 93.1C442.4 96 441.5 98.3 439.7 99.9C437.9 101.5 434.8 102.3 430.5 102.3H417.4V84.3H430.3C434.1 84.3 435.8 84.5 436.6 84.7C438.3 85.2 439.7 86.2 440.8 87.7C441.9 89.2 442.4 91 442.4 93.1Z" fill="#DBF0F8"/>
<path d="M484.2 129.7L478.3 114.3H457.7L452.1 129.7H443.8L463.8 77.7H471.8L493.1 129.7H484.3H484.2ZM475.8 107.7L470.8 94.3C469.5 91 468.5 88.1 467.8 85.7C467.2 88.3 466.4 90.9 465.5 93.5L460.2 107.7H475.9H475.8Z" fill="#DBF0F8"/>
<path d="M464.1 78.1L444.5 129.2H451.9L457.5 113.8H478.7L484.6 129.2H492.5L471.6 78.1H464.2H464.1ZM459.4 108.1L465 93.3C466.1 90.4 466.9 87.5 467.5 84.6V83.9C467.6 83.9 467.8 84.6 467.8 84.6C468.6 87.2 469.7 90.4 471.1 94.1L476.4 108.1H459.4Z" fill="#DBF0F8"/>
<path d="M503.6 129.7V107.7L483.5 77.6H493L503.2 93.2C504.9 95.8 506.5 98.4 507.9 101C509.3 98.5 511.1 95.8 513 92.8L523 77.6H532.2L511.4 107.7V129.7H503.6Z" fill="#DBF0F8"/>
<path d="M523.3 78.1L513.4 93.1C511.3 96.2 509.6 99.1 508.1 101.7L507.9 102L507.7 101.7C506.2 99 504.5 96.2 502.7 93.5L492.6 78.1H484.2L503.9 107.6V129.2H510.8V107.6L531.2 78.1H523.1H523.3Z" fill="#DBF0F8"/>
<path d="M1111 68.3C1114.1 67.8 1115 69.8 1116.3 72.1C1127.1 91.5 1127.2 117 1117.9 136.9C1117.3 138.2 1115.3 142.4 1114.3 143.2C1112.2 144.9 1109.1 143.8 1108.1 141.4C1107.1 139 1108.1 139.2 1108.7 137.8C1110 134.8 1111.6 131.9 1112.8 128.8C1118.4 113.8 1118.1 96.4 1112.1 81.6C1106.1 66.8 1109.8 76.8 1108.7 74.4C1107.6 72 1107.5 72.3 1108 70.9C1108.5 69.5 1109.5 68.5 1110.9 68.3H1111Z" fill="#DBF0F8"/>
<path d="M1096.2 76C1099.3 75.4 1100.2 76.9 1101.5 79.3C1109.9 94.2 1110.5 112.9 1103.8 128.6C1097.1 144.3 1100.8 135.4 1098.5 136.4C1096.2 137.4 1093 134.8 1093.5 132.1C1095.1 128.3 1097 124.8 1098.3 120.9C1101.7 110.4 1101.3 98.7 1097.2 88.5C1093.1 78.3 1093.8 82.2 1093.5 80.2C1093.2 78.2 1094.3 76.4 1096.2 76.1V76Z" fill="#DBF0F8"/>
<path d="M1080 84.5C1082.2 82.3 1084.7 83.3 1086.2 85.6C1093.8 96.7 1093.6 115.3 1086.4 126.5C1085 128.7 1082.9 130.1 1080.5 128.2C1078.1 126.3 1080.1 122.1 1081.4 119.2C1086.1 107.8 1084.5 100.7 1079.8 89.9C1075.1 79.1 1078.2 86.3 1080 84.5Z" fill="#DBF0F8"/>
<path d="M1068.1 90.7C1071.8 90.2 1074.5 96.4 1075.4 99.3C1076.7 103.7 1076.8 108.2 1075.6 112.7C1074.4 117.2 1071 124.6 1066.5 121.1C1062 117.6 1066.8 114.3 1068 110.8C1069.3 107.1 1069 103.9 1067.5 100.4C1066 96.9 1064.8 96.2 1064.8 94.5C1064.8 92.8 1066.4 90.9 1068.1 90.7Z" fill="#DBF0F8"/>
</g>
<defs>
<linearGradient id="paint0_linear_4156_6120" x1="1200" y1="382.6" x2="0" y2="382.6" gradientUnits="userSpaceOnUse">
<stop stop-color="#0D9ED8"/>
<stop offset="0.3" stop-color="#1471AD"/>
<stop offset="0.5" stop-color="#1A4E8B"/>
<stop offset="0.7" stop-color="#1E3472"/>
<stop offset="0.9" stop-color="#212564"/>
<stop offset="1" stop-color="#22205F"/>
</linearGradient>
<clipPath id="clip0_4156_6120">
<rect width="1200" height="765.3" fill="white"/>
</clipPath>
</defs>
</svg>
