<svg width="82" height="86" viewBox="0 0 82 86" fill="none" xmlns="http://www.w3.org/2000/svg">
<g clip-path="url(#clip0_286_2151)">
<path d="M38.2004 85.3C30.8004 85.3 23.5004 83.4 17.1004 79.8L15.9004 79.1H34.2004C54.6004 79.1 71.2004 62.7 71.2004 42.6C71.2004 22.5 54.6004 6.2 34.2004 6.2H15.9004L17.1004 5.5C23.5004 1.9 30.8004 0 38.2004 0C62.0004 0 81.4004 19.1 81.4004 42.7C81.4004 66.3 62.0004 85.4 38.2004 85.4V85.3Z" fill="#231F20"/>
<path d="M38.2002 0.400391C30.6002 0.400391 23.4002 2.40039 17.2002 5.80039H34.1002C54.6002 5.80039 71.4002 22.4004 71.4002 42.7004C71.4002 63.0004 54.6002 79.6004 34.1002 79.6004H17.2002C23.4002 83.1004 30.6002 85.0004 38.2002 85.0004C61.8002 85.0004 81.0002 66.0004 81.0002 42.7004C81.0002 19.4004 61.8002 0.400391 38.2002 0.400391Z" fill="#231F20"/>
<path d="M11 69.6004H17.7H30.4C43.6 69.6004 52.7 58.6004 52.7 42.8004C52.7 27.0004 43.5 15.9004 30.4 15.9004H0V69.7004H11V69.6004ZM9.7 61.4004V23.9004H11H17.7H28.4C37.3 23.9004 42.9 31.1004 42.9 42.7004C42.9 54.3004 37.4 61.4004 28.4 61.4004H17.6H10.9H9.6H9.7Z" fill="#231F20"/>
</g>
<defs>
<clipPath id="clip0_286_2151">
<rect width="81.4" height="85.3" fill="white"/>
</clipPath>
</defs>
</svg>
