<svg width="82" height="86" viewBox="0 0 82 86" fill="none" xmlns="http://www.w3.org/2000/svg">
<g clip-path="url(#clip0_4309_678)">
<path d="M38.2 85.3C30.8 85.3 23.5 83.4 17.1 79.8L15.9 79.1H34.2C54.6 79.1 71.2 62.7 71.2 42.6C71.2 22.5 54.6 6.2 34.2 6.2H15.9L17.1 5.5C23.5 1.9 30.8 0 38.2 0C62 0 81.4 19.1 81.4 42.7C81.4 66.3 62 85.4 38.2 85.4V85.3Z" fill="white"/>
<path d="M38.2 0.400002C30.6 0.400002 23.4 2.4 17.2 5.8H34.1C54.6 5.8 71.4 22.4 71.4 42.7C71.4 63 54.6 79.6 34.1 79.6H17.2C23.4 83.1 30.6 85 38.2 85C61.8 85 81 66 81 42.7C81 19.4 61.8 0.400002 38.2 0.400002Z" fill="white"/>
<path d="M11 69.6H17.7H30.4C43.6 69.6 52.7 58.6 52.7 42.8C52.7 27 43.5 15.9 30.4 15.9H0V69.7H11V69.6ZM9.7 61.4V23.9H11H17.7H28.4C37.3 23.9 42.9 31.1 42.9 42.7C42.9 54.3 37.4 61.4 28.4 61.4H17.6H10.9H9.6H9.7Z" fill="white"/>
</g>
<defs>
<clipPath id="clip0_4309_678">
<rect width="81.4" height="85.3" fill="white"/>
</clipPath>
</defs>
</svg>
